# xmcd CD database file
#
# Track frame offsets:
#	150
#	18932
#	35825
#	59130
#	71855
#	93622
#	111340
#	136690
#	163610
#	183115
#
# Disc length: 2891 seconds
#
# Revision: 48
# Processed by: cddbd v1.5.2PL0 Copyright (c) Steve Scherf et al.
# Submitted via: CDex 1.51
#
DISCID=8e0b490a
DTITLE=Manowar - Kings of Metal
DYEAR=1988
DGENRE=Heavy Metal
TTITLE0=Wheels of Fire
TTITLE1=Kings of Metal
TTITLE2=Heart of Steel
TTITLE3=Sting of the Bumblebee
TTITLE4=The Crown and the Ring (Lament of the Kings)
TTITLE5=Kingdom Come
TTITLE6=Pleasure Slave (bonus)
TTITLE7=Hail and Kill
TTITLE8=The Warriors Prayer
TTITLE9=Blood of the Kings
EXTD=YEAR: 1988
EXTT0=
EXTT1=
EXTT2=
EXTT3=
EXTT4=
EXTT5=
EXTT6=
EXTT7=
EXTT8=
EXTT9=
PLAYORDER=
